<?xml version="1.0" encoding="UTF-8"?>
<svg id="_图层_1" data-name="图层 1" xmlns="http://www.w3.org/2000/svg" xmlns:xlink="http://www.w3.org/1999/xlink" viewBox="0 0 800 800">
  <defs>
    <style>
      .cls-1 {
        fill: url(#_未命名的渐变_12);
      }

      .cls-1, .cls-2, .cls-3 {
        stroke-width: 0px;
      }

      .cls-2 {
        fill: url(#_未命名的渐变_26);
      }

      .cls-3 {
        fill: #2e2624;
      }
    </style>
    <linearGradient id="_未命名的渐变_26" data-name="未命名的渐变 26" x1="113.15" y1="424.52" x2="482.86" y2="193.5" gradientUnits="userSpaceOnUse">
      <stop offset=".41" stop-color="#fccf00"/>
      <stop offset="1" stop-color="#594600"/>
    </linearGradient>
    <linearGradient id="_未命名的渐变_12" data-name="未命名的渐变 12" x1="426.77" y1="697" x2="555.99" y2="137.26" gradientUnits="userSpaceOnUse">
      <stop offset="0" stop-color="#fccf00"/>
      <stop offset=".32" stop-color="#fccf00"/>
      <stop offset="1" stop-color="#fbd375"/>
    </linearGradient>
  </defs>
  <rect class="cls-3" x="-3" y="-3" width="806" height="806"/>
  <g>
    <path class="cls-2" d="M445.04,134.92l-21.7-21.7c-15.45-15.45-40.51-15.45-55.96,0l-253.96,253.96s-.02.02-.02.03h0c-15.4,15.4-15.41,40.36-.03,55.78l36.56,36.63c8.33,8.34,19.94,12.53,31.68,11.41l121.57-11.6,10.63-111.33-10.67,1.02c-6.08.58-9.55-6.78-5.23-11.1l147.12-147.12c15.45-15.45,15.45-40.51,0-55.96Z"/>
    <path class="cls-1" d="M677.91,367.17l-36.56-36.6c-8.28-8.29-19.83-12.44-31.49-11.33l-105.75,10.09-15.93,1.52-10.63,111.33,11.97-1.14c5.74-.55,9.01,6.39,4.93,10.47l-48.93,48.93c-1.77,1.77-4.79.35-4.55-2.14l30.3-317.48c1.12-11.76-3.07-23.4-11.42-31.75l-36.24-36.2c-15.55-15.54-40.79-15.42-56.19.27h0l-47.33,495.88c-1.11,11.67,3.05,23.22,11.34,31.5l36.98,36.91c15.33,15.3,40.15,15.29,55.47-.03h0s0-.03,0-.03c.08-.08.17-.14.25-.22l253.9-253.9c.07-.07.13-.15.19-.22h.02s.02-.02.02-.02c15.18-15.57,15.03-40.45-.34-55.84Z"/>
  </g>
</svg>