<?xml version="1.0" standalone="no"?>
<!DOCTYPE svg PUBLIC "-//W3C//DTD SVG 20010904//EN"
 "http://www.w3.org/TR/2001/REC-SVG-20010904/DTD/svg10.dtd">
<svg version="1.0" xmlns="http://www.w3.org/2000/svg"
 width="518.000000pt" height="518.000000pt" viewBox="0 0 518.000000 518.000000"
 preserveAspectRatio="xMidYMid meet">
<metadata>
Created by potrace 1.14, written by Peter Selinger 2001-2017
</metadata>
<g transform="translate(0.000000,518.000000) scale(0.100000,-0.100000)"
fill="#000000" stroke="none">
<path d="M2483 5136 c-23 -7 -56 -23 -75 -34 -18 -12 -549 -538 -1180 -1169
-945 -947 -1150 -1157 -1168 -1197 -31 -70 -38 -178 -15 -247 27 -82 57 -118
266 -325 173 -170 200 -193 254 -213 56 -21 154 -28 235 -17 14 2 61 7 105 10
44 4 96 9 115 11 89 9 205 21 305 30 104 9 165 15 215 20 25 3 68 7 95 10 28
3 72 7 99 10 27 2 50 6 51 7 2 2 6 44 10 93 3 50 8 101 10 115 2 14 6 57 10
95 3 39 8 88 10 110 9 89 16 153 20 210 3 33 7 76 10 95 5 41 17 184 19 220 1
24 -1 25 -61 25 -65 0 -76 5 -88 44 -6 20 21 51 235 265 222 222 241 238 236
206 -5 -32 -11 -93 -22 -220 -2 -25 -6 -70 -9 -100 -3 -30 -7 -84 -11 -120 -3
-36 -7 -74 -9 -85 -1 -11 -6 -61 -10 -110 -4 -50 -9 -97 -10 -106 -2 -9 -6
-56 -10 -105 -4 -49 -9 -96 -10 -105 -2 -9 -6 -56 -10 -105 -3 -49 -8 -100
-10 -114 -2 -14 -7 -54 -10 -90 -3 -36 -8 -86 -10 -112 -3 -27 -7 -69 -10 -95
-2 -27 -7 -77 -10 -113 -3 -36 -8 -76 -10 -90 -2 -14 -7 -65 -10 -114 -4 -50
-8 -97 -10 -105 -1 -9 -6 -54 -10 -101 -4 -47 -9 -98 -11 -115 -1 -16 -5 -64
-9 -105 -3 -41 -8 -88 -10 -105 -2 -16 -7 -61 -10 -100 -3 -38 -8 -81 -10 -95
-10 -61 -20 -213 -20 -305 1 -146 13 -164 254 -405 238 -238 265 -255 406
-255 160 0 59 -90 1347 1199 943 943 1148 1153 1171 1198 54 107 45 255 -23
352 -16 23 -113 125 -217 227 -180 179 -207 200 -298 233 -20 8 -154 9 -190 2
-11 -2 -58 -7 -105 -11 -47 -4 -92 -8 -100 -10 -8 -2 -58 -6 -110 -10 -52 -4
-102 -9 -111 -10 -8 -2 -53 -6 -100 -10 -46 -3 -95 -8 -109 -10 -14 -2 -56 -7
-95 -10 -38 -3 -86 -7 -105 -10 -19 -2 -63 -7 -97 -10 l-63 -7 -1 -41 c0 -23
-2 -50 -4 -59 -2 -9 -6 -54 -10 -100 -4 -46 -9 -96 -11 -113 -2 -16 -5 -58 -8
-93 -3 -34 -8 -79 -10 -100 -3 -20 -7 -71 -11 -112 -4 -41 -8 -93 -11 -115 -9
-90 -17 -182 -18 -205 -1 -24 2 -25 59 -26 80 -1 80 -1 93 -28 9 -20 7 -29 -9
-49 -45 -59 -433 -437 -446 -437 -14 0 -15 14 -9 98 4 53 9 108 10 122 2 14 7
63 11 110 4 47 9 92 10 100 2 8 6 53 9 100 4 47 9 101 11 120 2 19 7 64 10
100 3 36 8 81 10 100 2 19 7 69 10 110 4 41 8 86 10 100 2 14 6 57 9 95 4 39
9 90 11 115 3 25 7 72 10 105 4 33 8 76 9 95 2 19 7 71 10 115 4 44 9 94 11
110 2 17 7 62 10 100 4 39 8 84 10 100 2 17 7 66 10 110 3 44 8 91 10 105 2
14 6 57 10 95 16 184 26 288 30 325 15 131 20 197 20 280 0 150 -18 180 -262
421 -150 148 -210 202 -248 219 -63 28 -191 36 -252 16z"/>
</g>
</svg>
