<?xml version="1.0" standalone="no"?>
<!DOCTYPE svg PUBLIC "-//W3C//DTD SVG 20010904//EN"
 "http://www.w3.org/TR/2001/REC-SVG-20010904/DTD/svg10.dtd">
<svg version="1.0" xmlns="http://www.w3.org/2000/svg"
 width="700.000000pt" height="700.000000pt" viewBox="0 0 700.000000 700.000000"
 preserveAspectRatio="xMidYMid meet">
<metadata>
Created by potrace 1.14, written by Peter Selinger 2001-2017
</metadata>
<g transform="translate(0.000000,700.000000) scale(0.100000,-0.100000)"
fill="#000000" stroke="none">
<path d="M0 3500 l0 -3500 3500 0 3500 0 0 3500 0 3500 -3500 0 -3500 0 0
-3500z m3587 2589 c52 -20 80 -44 264 -226 239 -236 260 -267 267 -383 3 -51
-39 -528 -128 -1464 -112 -1171 -131 -1389 -119 -1397 20 -12 469 436 469 468
0 42 -27 56 -97 50 -35 -4 -63 -2 -63 2 0 48 92 957 98 962 4 3 257 29 562 58
538 50 557 52 614 36 33 -9 74 -24 90 -35 17 -10 124 -112 237 -227 186 -188
208 -214 229 -268 29 -79 25 -196 -9 -270 -19 -41 -243 -270 -1175 -1203
-1300 -1302 -1205 -1218 -1361 -1216 -133 1 -163 19 -397 252 -218 216 -254
267 -264 373 -3 33 48 611 130 1471 75 779 136 1420 136 1424 0 5 -108 -99
-240 -231 -159 -158 -240 -247 -240 -261 0 -44 23 -58 89 -56 l61 3 0 -33 c-1
-58 -87 -928 -92 -934 -11 -11 -1045 -105 -1113 -101 -119 7 -146 24 -368 245
-110 108 -210 213 -222 233 -38 59 -58 144 -51 213 14 135 -27 90 1015 1129
522 521 954 947 959 947 6 0 68 -93 138 -206 71 -114 130 -201 131 -193 1 8
18 178 38 379 20 201 37 370 40 377 5 16 89 72 133 88 59 22 172 19 239 -6z"/>
</g>
</svg>
