<?xml version="1.0" encoding="UTF-8"?>
<svg id="_图层_1" data-name="图层 1" xmlns="http://www.w3.org/2000/svg" xmlns:xlink="http://www.w3.org/1999/xlink" viewBox="0 0 512 512">
  <defs>
    <style>
      .cls-1 {
        fill: url(#_未命名的渐变_12);
      }

      .cls-1, .cls-2, .cls-3 {
        stroke-width: 0px;
      }

      .cls-2 {
        fill: url(#_未命名的渐变_26);
      }

      .cls-3 {
        fill: #2e2624;
      }
    </style>
    <linearGradient id="_未命名的渐变_26" data-name="未命名的渐变 26" x1="73.88" y1="271.98" x2="309.09" y2="125.01" gradientUnits="userSpaceOnUse">
      <stop offset=".41" stop-color="#fccf00"/>
      <stop offset="1" stop-color="#594600"/>
    </linearGradient>
    <linearGradient id="_未命名的渐变_12" data-name="未命名的渐变 12" x1="273.4" y1="445.33" x2="355.61" y2="89.23" gradientUnits="userSpaceOnUse">
      <stop offset="0" stop-color="#fccf00"/>
      <stop offset=".32" stop-color="#fccf00"/>
      <stop offset="1" stop-color="#fbd375"/>
    </linearGradient>
  </defs>
  <rect class="cls-3" x="0" width="512.76" height="512.76"/>
  <g>
    <path class="cls-2" d="M285.03,87.74l-13.8-13.8c-9.83-9.83-25.77-9.83-35.6,0L74.06,235.5s-.01.01-.02.02h0c-9.8,9.8-9.8,25.68-.02,35.49l23.26,23.3c5.3,5.31,12.69,7.97,20.15,7.26l77.34-7.38,6.76-70.83-6.79.65c-3.87.37-6.07-4.31-3.33-7.06l93.6-93.6c9.83-9.83,9.83-25.77,0-35.6Z"/>
    <path class="cls-1" d="M433.17,235.5l-23.26-23.29c-5.27-5.27-12.61-7.92-20.03-7.21l-67.28,6.42-10.14.97-6.76,70.83,7.61-.73c3.65-.35,5.73,4.07,3.14,6.66l-31.13,31.13c-1.13,1.13-3.05.22-2.89-1.36l19.28-201.98c.71-7.48-1.95-14.89-7.27-20.2l-23.06-23.03c-9.89-9.88-25.95-9.81-35.75.17h0l-30.11,315.47c-.71,7.42,1.94,14.77,7.22,20.04l23.53,23.48c9.75,9.73,25.55,9.73,35.29-.02h0s0-.02,0-.02c.05-.05.11-.09.16-.14l161.52-161.52s.08-.09.12-.14h.01s.01-.01.01-.01c9.66-9.91,9.56-25.74-.22-35.52Z"/>
  </g>
</svg>