<svg id="图层_1" data-name="图层 1" xmlns="http://www.w3.org/2000/svg" xmlns:xlink="http://www.w3.org/1999/xlink" viewBox="0 0 470.55 470.55"><defs><style>.cls-1{fill:url(#未命名的渐变_26);}.cls-2{fill:url(#未命名的渐变_12);}</style><linearGradient id="未命名的渐变_26" x1="9.01" y1="258.74" x2="303.73" y2="74.57" gradientUnits="userSpaceOnUse"><stop offset="0.41" stop-color="#fdd000"/><stop offset="1" stop-color="#594600"/></linearGradient><linearGradient id="未命名的渐变_12" x1="259.02" y1="475.95" x2="362.04" y2="29.74" gradientUnits="userSpaceOnUse"><stop offset="0" stop-color="#fdd000"/><stop offset="0.32" stop-color="#fdd100"/><stop offset="1" stop-color="#fcd475"/></linearGradient></defs><path class="cls-1" d="M273.59,27.87l-17.3-17.29a31.54,31.54,0,0,0-44.61,0L9.23,213l0,0h0a31.47,31.47,0,0,0,0,44.47l29.15,29.2a31.44,31.44,0,0,0,25.25,9.09l96.91-9.25L169,197.8l-8.51.81a5.2,5.2,0,0,1-4.17-8.85L273.59,72.48A31.54,31.54,0,0,0,273.59,27.87Z"/><path class="cls-2" d="M459.22,213l-29.14-29.18a31.3,31.3,0,0,0-25.11-9l-84.3,8.05L308,184.07l-8.48,88.75,9.55-.91a4.91,4.91,0,0,1,3.93,8.35l-39,39a2.13,2.13,0,0,1-3.62-1.71L294.49,64.46a31.51,31.51,0,0,0-9.11-25.31L256.49,10.29a31.54,31.54,0,0,0-44.79.21h0L174,405.81a31.28,31.28,0,0,0,9,25.11l29.48,29.43a31.3,31.3,0,0,0,44.22,0h0v0l.2-.17,202.4-202.4.15-.18h0A31.69,31.69,0,0,0,459.22,213Z"/></svg>