<svg id="图层_1" data-name="图层 1" xmlns="http://www.w3.org/2000/svg" xmlns:xlink="http://www.w3.org/1999/xlink" viewBox="0 0 368.3 156.41"><defs><style>.cls-1{fill:#fff;}.cls-2{fill:url(#未命名的渐变_26);}.cls-3{fill:url(#未命名的渐变_12);}</style><linearGradient id="未命名的渐变_26" x1="3.01" y1="86.04" x2="101.42" y2="24.54" gradientUnits="userSpaceOnUse"><stop offset="0.41" stop-color="#fdd000"/><stop offset="1" stop-color="#594600"/></linearGradient><linearGradient id="未命名的渐变_12" x1="86.49" y1="158.57" x2="120.88" y2="9.58" gradientUnits="userSpaceOnUse"><stop offset="0" stop-color="#fdd000"/><stop offset="0.32" stop-color="#fdd100"/><stop offset="1" stop-color="#fcd475"/></linearGradient></defs><path class="cls-1" d="M368.3,74.11l-5.66-1.84a.73.73,0,0,1-.51-.7V52.4a.74.74,0,0,1,.74-.74h5.07v-6.8h-5.07a.74.74,0,0,1-.74-.74V34.33h-8v9.79a.74.74,0,0,1-.74.74h-2.25v6.8h2.25a.74.74,0,0,1,.74.74V70.55a.74.74,0,0,1-.74.74h-8.51a.74.74,0,0,1-.74-.74V52.4a.74.74,0,0,1,.74-.74h2.63v-6.8h-2.63a.74.74,0,0,1-.74-.74V34.33h-8v9.79a.75.75,0,0,1-.74.74H329.6v6.8h5.75a.74.74,0,0,1,.74.74V71a.74.74,0,0,1-.52.7l-8.94,2.9a.73.73,0,0,1-1-.7V64.25a.74.74,0,0,1,.73-.74h2.82V56.7H326.4a.74.74,0,0,1-.73-.74V45.68a.74.74,0,0,1,.73-.74h2.82V38.13H312.87v6.81h4a.74.74,0,0,1,.74.74V56a.74.74,0,0,1-.74.74h-4v6.81h4a.74.74,0,0,1,.74.74V77a.73.73,0,0,1-.51.7l-5.61,1.83,2.1,6.47,21.5-7a.74.74,0,0,1,1,.7V91.85h8v-13a.74.74,0,0,1,.74-.74h8.51a.74.74,0,0,1,.74.74v13h8V80.28a.73.73,0,0,1,1-.7l3.1,1Z"/><path class="cls-1" d="M292.7,43.07V34h-8v9.09h-14v.85h-.13V72.67L265,74.45a.74.74,0,0,1-1-.71V55.15a.74.74,0,0,1,.74-.74h4.29V47.6h-4.29a.74.74,0,0,1-.74-.74V34.33h-8V46.86a.74.74,0,0,1-.74.74h-5.26v6.81h5.26a.74.74,0,0,1,.74.74V76.83a.73.73,0,0,1-.51.7l-6.13,2,2.1,6.47,19.64-6.38h13.52V91.79h8V79.62h14V43.07ZM298,72.81H279.28a.74.74,0,0,1-.74-.74V50.62a.74.74,0,0,1,.74-.74H298a.74.74,0,0,1,.74.74V72.07A.74.74,0,0,1,298,72.81Z"/><rect class="cls-1" x="283.45" y="55.18" width="10.47" height="12.34"/><path class="cls-1" d="M191.22,36.32V62q0,16.78-5.46,24.83,3.35,2.52,6.75,5.63,6.81-10.38,6.81-29.64v-19a.74.74,0,0,1,.73-.74H211.9a.74.74,0,0,1,.74.74v2.57a.74.74,0,0,1-.74.74h-9.42v5.64h8a.43.43,0,0,1,.14.83L201,56.81v5.75h30.87V56.81h-11a.43.43,0,0,1-.13-.84l9.7-3.15V47.18H221a.74.74,0,0,1-.74-.74V43.87a.74.74,0,0,1,.74-.74h11.61a.74.74,0,0,1,.74.74V79.05a7.45,7.45,0,0,1-.66,3.11q-.66,1.47-4.86,1.47-3.34,0-6.05-.23.94,3.63,1.77,7.86c3.4,0,6.5,0,9.28-.09a8,8,0,0,0,6.4-3q2.22-2.88,2.22-8.55V36.32Z"/><path class="cls-1" d="M228.9,81.81V66H203.78V81.81Zm-17.67-6.26V72.28a.74.74,0,0,1,.74-.74h8.73a.74.74,0,0,1,.74.74v3.27a.74.74,0,0,1-.74.74H212A.74.74,0,0,1,211.23,75.55Z"/><path class="cls-1" d="M185.51,121.37V99.85h7.43q11.46,0,11.46,10.49a10.46,10.46,0,0,1-3.21,8,11.57,11.57,0,0,1-8.28,3Zm4.58-16.47v11.42a1.3,1.3,0,0,0,1.3,1.29h1.2a6.75,6.75,0,0,0,5.13-1.94,7.3,7.3,0,0,0,1.86-5.26,6.51,6.51,0,0,0-1.94-5,7.15,7.15,0,0,0-5.06-1.8h-1.19A1.3,1.3,0,0,0,190.09,104.9Z"/><path class="cls-1" d="M219.74,121.37H207V99.85h12.24v3.75h-6.35a1.3,1.3,0,0,0-1.3,1.3v2.47a1.3,1.3,0,0,0,1.3,1.3h5.81v3.74h-5.81a1.3,1.3,0,0,0-1.3,1.29v2.62a1.3,1.3,0,0,0,1.3,1.29h6.85Z"/><path class="cls-1" d="M222,116a9,9,0,0,0,5.9,2.15,5,5,0,0,0,2.82-.64,2,2,0,0,0,.95-1.66,2.37,2.37,0,0,0-.75-1.66,14.08,14.08,0,0,0-4-2.11q-5-2.15-5-6.22a5.42,5.42,0,0,1,2.28-4.66,10.06,10.06,0,0,1,6.05-1.66,14.77,14.77,0,0,1,5.29.82v4.3a8.79,8.79,0,0,0-5.07-1.47,5.14,5.14,0,0,0-2.7.62,1.87,1.87,0,0,0-1,1.66,2.11,2.11,0,0,0,.7,1.53,12.82,12.82,0,0,0,3.43,1.9,11.23,11.23,0,0,1,4.41,2.9,5.71,5.71,0,0,1,1.2,3.64,5.48,5.48,0,0,1-2.2,4.72,10.27,10.27,0,0,1-6.23,1.63,13.51,13.51,0,0,1-6.06-1.19Z"/><path class="cls-1" d="M243.53,99.85v21.52H239V99.85Z"/><path class="cls-1" d="M265,119.92a15.32,15.32,0,0,1-7.75,1.82,11.11,11.11,0,0,1-8.11-2.89,10.49,10.49,0,0,1-3-7.9,11.06,11.06,0,0,1,3.27-8.28A11.85,11.85,0,0,1,258,99.49a17,17,0,0,1,6,1v4.35a11.89,11.89,0,0,0-6.11-1.46,6.63,6.63,0,0,0-5.05,2A8.57,8.57,0,0,0,252.7,116a6.13,6.13,0,0,0,4.75,1.89,8.32,8.32,0,0,0,2-.21,1.29,1.29,0,0,0,1-1.26V114.2a1.29,1.29,0,0,0-1.29-1.29h-3v-3.69H265Z"/><path class="cls-1" d="M287.19,121.37H282.5l-8.42-13a.93.93,0,0,0-1.71.51l0,12.51h-4.34V99.85h5l8.12,12.57a.93.93,0,0,0,1.71-.51l0-12.06h4.34Z"/><path class="cls-1" d="M303,121.37H290.27V99.85h12.24v3.75h-6.36a1.3,1.3,0,0,0-1.29,1.3v2.47a1.3,1.3,0,0,0,1.29,1.3H302v3.74h-5.82a1.29,1.29,0,0,0-1.29,1.29v2.62a1.29,1.29,0,0,0,1.29,1.29H303Z"/><path class="cls-1" d="M323,121.37h-5.27l-3.38-5.6a8.14,8.14,0,0,0-1.71-2.24,2.34,2.34,0,0,0-1.42-.5h-.09a1.3,1.3,0,0,0-1.29,1.3v7H305.2V99.85h7.54q7.68,0,7.69,5.83a6,6,0,0,1-1.29,3.77,6.77,6.77,0,0,1-2.42,1.81.6.6,0,0,0-.12,1,11.35,11.35,0,0,1,2.3,2.72Zm-13.16-16.74v3.6a1.3,1.3,0,0,0,1.29,1.3h1a3.59,3.59,0,0,0,2.59-.94,3.1,3.1,0,0,0,1-2.34c0-1.94-1.17-2.92-3.49-2.92h-1A1.3,1.3,0,0,0,309.79,104.63Z"/><path class="cls-2" d="M91.35,9,85.58,3.18a10.53,10.53,0,0,0-14.9,0L3.08,70.77h0a10.5,10.5,0,0,0,0,14.85l9.73,9.75a10.5,10.5,0,0,0,8.43,3l32.36-3.09,2.83-29.63L53.58,66A1.73,1.73,0,0,1,52.19,63L91.35,23.85A10.54,10.54,0,0,0,91.35,9Z"/><path class="cls-3" d="M153.33,70.77,143.6,61a10.45,10.45,0,0,0-8.38-3L107.07,60.7l-4.24.41L100,90.74l3.19-.3a1.63,1.63,0,0,1,1.31,2.78l-13,13a.72.72,0,0,1-1.22-.57l8.07-84.51a10.54,10.54,0,0,0-3-8.45L85.64,3.08a10.53,10.53,0,0,0-15,.07h0l-12.6,132a10.43,10.43,0,0,0,3,8.39L71,153.35a10.45,10.45,0,0,0,14.77,0h0l.06-.06L153.36,85.7l0-.06h0A10.58,10.58,0,0,0,153.33,70.77Z"/></svg>